<?xml version="1.0" encoding="utf-8"?>
<!-- Generator: Adobe Illustrator 18.0.0, SVG Export Plug-In . SVG Version: 6.00 Build 0)  -->
<!DOCTYPE svg PUBLIC "-//W3C//DTD SVG 1.1//EN" "http://www.w3.org/Graphics/SVG/1.1/DTD/svg11.dtd">
<svg version="1.1" id="Calque_1" xmlns="http://www.w3.org/2000/svg" xmlns:xlink="http://www.w3.org/1999/xlink" x="0px" y="0px"
	 viewBox="0 0 624.9 206.8" enable-background="new 0 0 624.9 206.8" xml:space="preserve">
<g>
	<path fill="#449E7E" stroke="#449E7D" stroke-width="0.5" stroke-miterlimit="10" d="M76.7,50.6c-1.5,0.8-2.5,2-3.1,3.7
		c-0.6,1.7-0.8,4.3-0.8,7.7v79.4h-3.1L13.8,55.2v70.3c0,3.4,0.3,6,0.9,7.7c0.6,1.7,1.7,3,3.4,3.7c1.7,0.8,4.3,1.2,7.8,1.3v2.7
		c-3.2-0.3-7.7-0.4-13.6-0.4c-5.3,0-9.4,0.1-12.3,0.4v-2.7c3.1-0.1,5.4-0.6,6.9-1.3c1.5-0.8,2.5-2,3.1-3.7c0.6-1.7,0.8-4.3,0.8-7.7
		V60.7c0-3.3-0.3-5.8-0.8-7.3c-0.5-1.5-1.5-2.6-3-3.1c-1.5-0.6-3.8-0.9-7-1v-2.7C2.9,46.9,7,47,12.3,47c4,0,7.5-0.1,10.4-0.4
		l47,72.4V62.1c0-3.4-0.3-6-0.9-7.7c-0.6-1.7-1.7-3-3.4-3.7c-1.7-0.8-4.3-1.2-7.8-1.3v-2.7c3.2,0.3,7.7,0.4,13.6,0.4
		c5.3,0,9.4-0.1,12.3-0.4v2.7C80.5,49.4,78.2,49.9,76.7,50.6z"/>
	<path fill="#449E7E" stroke="#449E7D" stroke-width="0.5" stroke-miterlimit="10" d="M124.9,76c-2.1-1.9-5.2-2.8-9.1-2.8
		c-6.3,0-10.7,1.6-13.2,4.7c1.8,0.4,3.3,1.4,4.5,2.8c1.2,1.5,1.8,3.2,1.8,5.3c0,2.3-0.7,4-2.1,5.3c-1.4,1.3-3.3,1.9-5.7,1.9
		c-2.3,0-4-0.8-5.3-2.3c-1.3-1.5-1.9-3.5-1.9-6c0-3.5,2.1-6.6,6.2-9.5c2.2-1.4,4.8-2.6,8-3.6c3.2-1,6.7-1.4,10.6-1.4
		c3.6,0,6.8,0.4,9.6,1.3c2.8,0.9,4.9,2.1,6.5,3.7c2,2.1,3.4,4.5,4.2,7.2c0.8,2.8,1.1,6.6,1.1,11.4v37c0,2.2,0.3,3.8,0.9,4.8
		c0.6,1,1.7,1.5,3.2,1.5c1.1,0,2.1-0.2,3-0.7c0.9-0.5,1.9-1.2,3-2.1l1.5,2.3c-1.6,1.2-2.9,2.1-3.9,2.7c-1,0.6-2.2,1.2-3.6,1.6
		c-1.3,0.4-2.9,0.6-4.7,0.6c-4.3,0-7.3-1.1-8.9-3.2c-1.7-2.1-2.5-5-2.5-8.6c-2.6,4.3-5.7,7.3-9.4,9.1c-3.6,1.8-7.3,2.7-11.1,2.7
		c-3.1,0-5.9-0.5-8.4-1.6c-2.6-1.1-4.6-2.7-6.1-4.9c-1.5-2.2-2.3-5-2.3-8.4c0-3.4,0.8-6.3,2.5-8.6c1.6-2.4,4-4.5,7-6.3
		c3-1.8,7-3.8,12-5.9c0.9-0.3,3-1.2,6.4-2.6c3.4-1.4,5.8-2.8,7.3-4.2c1.5-1.4,2.2-2.9,2.2-4.5v-8.3C128.2,81.4,127.1,77.9,124.9,76z
		 M124.9,103.1c-1.5,0.9-4.7,2.5-9.5,4.8c-2.6,1.2-4.7,2.5-6.5,3.7c-1.8,1.3-3.3,3-4.5,5.2c-1.3,2.2-1.9,4.8-1.9,8
		c0,3.9,1,6.8,2.9,8.7c1.9,2,4.5,3,7.7,3c5.9,0,10.9-3.4,15-10.1v-26.1C127.5,101.3,126.4,102.2,124.9,103.1z"/>
	<path fill="#449E7E" stroke="#449E7D" stroke-width="0.5" stroke-miterlimit="10" d="M258.9,134.3c0.7,1.4,1.7,2.4,3.2,2.9
		c1.5,0.6,3.4,0.8,5.9,0.8v2.8c-8.1-0.3-13.5-0.5-16-0.5c-2.5,0-7.4,0.2-14.9,0.5v-2.8c2.2,0,3.9-0.3,5.2-0.8
		c1.2-0.6,2.1-1.5,2.7-2.9c0.6-1.4,0.9-3.3,0.9-5.8V90.1c0-3.4-0.2-6.1-0.6-8.2c-0.4-2.1-1.3-3.8-2.8-5.1c-1.5-1.3-3.7-2-6.8-2
		c-3.4,0-6.4,1.1-9.2,3.2c-2.7,2.1-4.9,5-6.4,8.7c-1.6,3.7-2.3,7.8-2.3,12.2v29.7c0,2.5,0.3,4.4,1,5.8c0.7,1.4,1.7,2.4,3.2,2.9
		c1.4,0.6,3.4,0.8,5.9,0.8v2.8c-8.1-0.3-13.5-0.5-15.9-0.5c-2.5,0-7.5,0.2-14.9,0.5v-2.8c2.2,0,3.9-0.3,5.2-0.8
		c1.3-0.6,2.2-1.5,2.7-2.9c0.6-1.4,0.8-3.3,0.8-5.8V90.1c0-3.4-0.2-6.1-0.6-8.2c-0.4-2.1-1.3-3.8-2.8-5.1c-1.5-1.3-3.7-2-6.7-2
		c-3.4,0-6.5,1.1-9.2,3.2c-2.7,2.1-4.9,5.1-6.4,8.8s-2.3,7.8-2.3,12.3v29.6c0,2.5,0.3,4.4,0.9,5.8c0.6,1.4,1.5,2.4,2.8,2.9
		c1.3,0.6,3,0.8,5.2,0.8v2.8c-7.5-0.3-12.4-0.5-14.9-0.5c-2.5,0-7.8,0.2-16,0.5v-2.8c2.5,0,4.5-0.3,5.9-0.8c1.5-0.6,2.5-1.5,3.2-2.9
		c0.7-1.4,1-3.3,1-5.8V86.9c0-4.1-0.7-7.1-2.2-9c-1.5-1.9-4.1-2.8-7.9-2.8v-2.8c2.8,0.3,5.5,0.4,8.3,0.4c5.6,0,10.2-0.6,13.8-1.8
		v15.7c2.2-5.5,5.2-9.5,9.1-12.1c3.9-2.6,8.1-3.9,12.7-3.9c6,0,10.6,1.7,13.8,5c2.2,2.4,3.6,6,4.1,10.7c2.2-5.6,5.3-9.6,9.2-12.1
		c3.9-2.4,8.2-3.7,13-3.7c6,0,10.6,1.7,13.8,5c1.6,1.8,2.7,4,3.4,6.8c0.6,2.8,1,6.3,1,10.7v35.5C257.9,131,258.3,132.9,258.9,134.3z
		"/>
	<path fill="#449E7E" stroke="#449E7D" stroke-width="0.5" stroke-miterlimit="10" d="M326.7,133.6c-2.3,2.7-5.1,4.9-8.5,6.6
		c-3.4,1.7-7.2,2.5-11.4,2.5c-6.3,0-11.8-1.4-16.4-4.3c-4.6-2.9-8.1-6.9-10.6-12.2c-2.4-5.2-3.6-11.2-3.6-18
		c0-7.7,1.2-14.4,3.7-20.1c2.5-5.7,6-10,10.5-13.1c4.5-3.1,9.8-4.6,15.9-4.6c8,0,14.1,2.4,18.4,7.2c4.3,4.8,6.5,12.2,6.5,22h-41.6
		c-0.3,2.3-0.5,5.1-0.5,8.5c0,5.8,1,11,2.9,15.3c1.9,4.4,4.5,7.7,7.6,10.1s6.4,3.5,9.9,3.5c8.9,0,15.4-4.4,19.6-13.3l2.7,1
		C330.7,128,329,130.9,326.7,133.6z M317.3,85c-0.9-3.7-2.3-6.6-4.3-8.8c-1.9-2.2-4.4-3.2-7.2-3.2c-2.7,0-5.2,0.9-7.5,2.6
		c-2.3,1.8-4.2,4.4-5.8,8.1c-1.6,3.6-2.6,8.1-3,13.5h29C318.6,92.8,318.2,88.7,317.3,85z"/>
</g>
<g>
	<path fill="#FC5638" d="M391.3,67c2.1,1.2,4,2.9,5.6,5.2c1.4,2.1,2.4,4.8,3.3,8.2c0.8,3.4,0.8,7.8-0.1,13.4
		c-0.9,5.1-2.7,10.8-5.3,17.1c-2.6,6.3-5.8,12.1-9.4,17.5c-3.7,5.4-7.7,9.7-11.9,13c-4.3,3.3-8.4,4.5-12.5,3.6
		c-0.9-0.2-1.7-0.5-2.5-1.1c-0.7-0.5-1.5-1.1-2.1-1.8c-0.7-0.8-1.2-1.7-1.5-2.9V139c-0.1-0.3-0.3-0.7-0.5-1.2
		c-0.1-0.5-0.1-1.1,0.2-1.7c0.3-0.9,0.9-1.6,1.8-2h0.5c0.3,0,0.6,0.1,0.9,0.5c-0.1,0.9-0.2,1.6-0.2,2.3c0,0.6,0.2,1.2,0.4,1.8
		c0.3,0.6,0.8,1,1.6,1.3c0.7,0.3,1.5,0.5,2.1,0.5c0.7,0,1.6-0.2,2.8-0.5c1.9-0.6,4.5-2.8,7.5-6.6c3.1-3.8,6-8.5,8.8-14.1
		c2.8-5.5,5.1-11.6,6.9-18.2c1.8-6.6,2.5-13,2-19.1c0-1.6-0.1-3.1-0.2-4.5c-0.2-1.2-0.4-2.3-0.8-3.1c-0.4-0.9-0.9-1.5-1.7-1.8
		c-0.6-0.1-1.7,0.3-3.2,1.3c-1.5,1.1-3.3,2.7-5.3,5.1c-2,2.3-4.2,5.3-6.5,8.8c-2.3,3.5-4.6,7.8-6.9,12.7
		c-6,16.2-10.3,30.3-12.9,42.4c-2.6,12.1-4.3,22.3-5,30.6c-0.7,8.3-0.7,14.9,0,19.7c0.7,4.8,1.2,7.9,1.7,9.5
		c0.2,0.6,0.1,1.2-0.2,1.8c-0.1,0.3-0.3,0.5-0.5,0.5c-1.6,1.3-3.1,2-4.3,2c-1.2,0-2.2-0.3-2.9-0.9c-0.9-0.6-1.7-1.7-2.5-3.1
		c-2.4-5.7-3.4-12.8-3.1-21.4c0.3-8.6,1.5-17.6,3.5-27.2c2-9.6,4.6-19.2,7.7-28.8c3.1-9.6,6.2-18.4,9.2-26.3
		c3.1-7.9,5.8-14.5,8.3-19.8c2.5-5.2,4.1-8.2,4.8-9c0.7-0.7,1.6-1.4,2.5-1.9c0.9-0.5,1.7-0.9,2.5-1.2c0.1,0,0.5,0,1.1-0.1
		c0.6-0.1,1.2-0.1,1.7,0c0.5,0.1,0.9,0.3,1.1,0.8c0.2,0.4,0.2,1.1-0.1,2c-1.7,3.9-3.2,7.5-4.7,10.8c1.4-2.1,2.8-4.1,4.4-6.1
		c1.6-1.9,3.1-3.6,4.7-4.9c1.6-1.4,3.2-2.3,4.7-2.7C388.5,66.4,390,66.5,391.3,67z"/>
	<path fill="#FC5638" d="M434.7,90.9c1.2,0.3,1.6,1,1.3,2c-0.6,3-1.2,5.7-1.9,8c-0.7,2.3-1.5,5-2.4,8c-0.9,3-1.9,6-2.9,9
		c-2.9,7.9-5.9,14-9.2,18.2c-1.5,2.3-3.2,3.8-5.2,4.7c-1.3,0.9-2.6,1.4-3.7,1.6c-1.1,0.1-2.1,0.1-2.8,0c-0.9-0.2-1.7-0.5-2.5-1.1
		c-2.1-1.3-3.5-3.7-4.2-7c-0.7-3.3-0.9-7-0.6-11.1c0.3-4.1,0.9-8.5,1.9-13.3c1-4.7,2-9.3,3.1-13.7c1.1-4.4,2.3-8.4,3.5-12
		c1.2-3.6,2.2-6.4,2.9-8.6c0.1-0.6,0.5-1.1,0.9-1.6c0.9-0.9,1.9-1,2.9-0.5c1.9,1.1,3.3,2.3,3.9,3.7c0.7,1.4,1.1,2.7,1.2,3.9
		c0.1,1.7,0,3.2-0.4,4.7c-3.9,10.5-6.7,19.1-8.3,25.9c-1.7,6.7-2.6,12.1-2.9,16c-0.3,3.9-0.2,6.6,0.2,8.2c0.4,1.6,0.9,2.4,1.3,2.6
		c0.7-0.2,1.7-0.7,2.9-1.6c1.6-1.4,2.6-2.3,2.9-2.9c1.5-2,3-4.4,4.5-7.2c1.5-2.9,2.9-6.2,4.3-10.1c1-3,2-6,2.9-8.9
		c0.9-2.9,1.6-5.5,2.3-7.8c0.6-2.3,1.2-4.9,1.8-7.9C433,91.1,433.7,90.6,434.7,90.9z M419.7,66.1c-0.6-0.7-1.1-1.6-1.6-2.7
		c-0.3-0.9-0.5-2.1-0.5-3.5c0-1.4,0.4-3.2,1.1-5.3c0.7-1.9,1.7-3.4,2.8-4.5c1.1-1,2.3-1.7,3.5-2c1.2-0.3,2.3-0.3,3.3,0
		c1,0.3,1.7,0.8,2.1,1.6c0.6,1.1,0.6,2.7,0,5.1c-0.6,2.3-1.5,4.6-2.7,6.7c-1.2,2.2-2.6,3.8-4.2,4.9C422,67.6,420.7,67.5,419.7,66.1z
		"/>
	<path fill="#FC5638" d="M434.1,140.8c-3.9-1.5-6.5-3.9-7.9-7.3c-1.4-3.4-2-6.9-2-10.6c0-3.7,0.4-7.2,1.1-10.5
		c0.8-3.3,1.3-5.7,1.8-7.2c2.3-6.9,5-13.4,8.3-19.6c3.3-6.1,6.6-10.7,9.9-13.7c2.5-2.7,5.1-4.1,7.7-4.1c1.7-0.1,3.3,0.1,5,0.7
		c1.4,0.5,2.8,1.2,4.3,2.3c1.5,1.1,2.8,2.6,4,4.7c1,2.1,1.4,4.4,0.9,6.8c-0.3,1.7-0.8,3.2-1.4,4.7c-0.9,2.1-2.1,3.9-3.6,5.4
		c-0.3,0.3-0.6,0.7-1,1.1c-0.4,0.5-0.9,0.9-1.7,1.4c-0.2,0-0.3,0.1-0.5,0.2c-1.2,0.8-2.6,1.1-4.3,1.1h-0.2c-0.2,0-0.5-0.1-1.1-0.2
		c-0.6-0.1-1.1-0.4-1.6-0.7c-0.9-0.4-1.3-1.2-1.3-2.2c-0.2-0.1-0.2-0.3,0-0.5c0-0.5,0.3-0.7,0.9-0.7c0.7,0.5,1.4,0.8,2,0.9
		c1.5,0.3,2.7-0.1,3.6-1.1c0.1-0.1,0.3-0.3,0.3-0.4c0.1-0.1,0.3-0.4,0.6-0.7v-0.2c0.1-0.1,0.6-1.1,1.4-2.9c0.3-1,0.6-2.2,0.9-3.5
		c0.3-1.3,0.4-2.6,0.2-3.9c-0.2-0.3-0.2-0.5-0.2-0.7c0-0.1-0.1-0.4-0.2-0.7c-0.8-2.1-2.3-2.3-4.6-0.7c-2.3,1.7-4.5,3.9-6.6,6.7
		c-0.3,0.6-0.6,1.1-1,1.6c-0.4,0.5-0.7,0.9-1,1.4c-0.6,0.9-1.1,1.7-1.3,2.5c-0.3,0.8-0.6,1.4-0.9,2c-0.3,0.6-0.6,1.3-0.9,2
		c-1.5,3-2.7,5.9-3.7,8.5c-1,2.7-1.8,5.3-2.6,7.7c-0.5,1.8-1,4-1.6,6.6c-0.6,2.6-0.9,5.3-0.8,7.9c0.1,2.6,0.6,5,1.5,7.1
		c0.9,2.1,2.5,3.4,4.9,4.1c2.8,0.7,5.6,0.9,8.3,0.5c3-0.8,5.7-2.2,8.1-4.4c2.4-2.2,4.2-3.9,5.4-5.3c2.2-2.9,4.6-6.5,7.2-11
		c1.6-3,3.2-5.9,4.7-8.7c1.5-2.8,2.8-5.3,4.1-7.5c1.4-2.7,2.5-5.2,3.4-7.7c0.6-1,1.4-1.3,2.3-0.9c1.2,0.3,1.5,1.1,0.9,2.3
		c-1.1,2.4-2.2,4.9-3.6,7.6c-1.2,2.3-2.5,4.8-3.9,7.8c-1.4,2.9-3,5.9-4.8,8.9c-1.4,2.3-2.7,4.4-3.9,6.3c-1.3,1.9-2.6,3.7-3.9,5.4
		c-0.1,0.5-0.9,1.4-2.2,2.9c-1.5,1.6-3.4,3.4-5.6,5.2c-2.3,1.8-4.9,3.1-7.9,4c-1.5,0.5-3.1,0.7-4.8,0.9c-1.7,0.1-3.6,0.1-5.5-0.2
		C437.1,141.9,435.4,141.4,434.1,140.8z"/>
	<path fill="#FC5638" d="M507.6,142.2c-4.1-0.3-7.3-1.6-9.8-3.8c-2.5-2.3-4.4-5-5.6-8.3c-1.3-3.3-2.1-6.8-2.5-10.5
		c-0.4-3.7-0.5-7.1-0.3-10.2c0-1.9,0.1-3.3,0.2-4.1c-0.8,1.7-2,4.7-3.8,9.1c-1.8,4.4-3.5,9.5-5.2,15.2c-0.6,2.1-1.2,4.2-1.7,6.3
		c-0.5,2.1-1,4.2-1.5,6.3c-0.1,0.5-0.4,0.7-0.7,0.7c-0.1,0-0.3-0.1-0.5-0.2c-0.7-0.5-1.7-1.4-2.8-2.7c-1.1-1.3-1.8-3.3-2.1-5.9
		c-0.1-1.1,0.5-4.6,1.8-10.7c1.4-6.1,3.3-13.5,6-22.4c2.6-8.8,5.8-18.4,9.4-28.8c3.7-10.3,7.8-20.3,12.3-29.8
		c4.5-9.5,9.4-18.1,14.6-25.6c5.2-7.6,10.8-12.9,16.6-16.1c1.4-0.5,2.6-0.7,3.8-0.7c1,0.2,2.1,0.5,3,1.1c1,0.6,1.7,2,2.1,4.1v0.7
		c0,0.5-0.3,0.9-0.9,1.4c-2.2,1.8-5.2,4.7-8.8,8.7c-3.6,4-7.6,9.4-12,16.3c-4.4,6.9-9.1,15.5-14,25.8c-4.9,10.3-9.7,22.5-14.5,36.8
		c1.2-2.1,2.3-4,3.3-5.7c1-1.7,2-3.4,3-5.1c4.1-6.4,8.2-11.7,12.6-15.8c0.7-0.7,1.5-1.4,2.4-2c0.8-0.6,1.6-1.1,2.4-1.6
		c0.6-0.3,1.4-0.7,2.5-1.1c1-0.5,2.2-0.5,3.4-0.2c0.7,0.3,1.6,0.7,2.5,1.2c0.9,0.5,1.7,1.2,2.5,1.9c0.1,0.3,0.3,0.8,0.6,1.5
		c0.2,0.7,0.2,1.6-0.1,2.8c-0.8,1.8-1.7,4.4-2.9,7.7c-1.2,3.3-2.5,6.9-3.9,10.8c-1.4,3.9-2.5,7.4-3.3,10.3c-0.3,0.8-0.7,1.2-1.1,1.4
		c-0.6,0-1.3-0.1-2.2-0.2c-0.9-0.1-1.9-0.6-2.9-1.4c-0.8-0.6-1.2-2-1.2-4.3c-0.1-2.3,0.3-4.9,1-7.9c0.5-3.1,1.4-6.3,2.7-9.5
		c1-3.1,2.5-6.3,4.5-9.5c0.3-0.3,0.6-0.7,0.9-1.3c-0.3,0.2-0.9,0.5-1.8,1.1c-0.6,0.5-1.2,0.9-1.8,1.4c-0.6,0.4-1.2,1.1-1.8,1.8
		c-2.1,2-4.1,4.2-6.1,6.6c-1.9,2.5-3.8,5.1-5.6,7.8c-0.5,0.8-0.9,1.5-1.3,2.3c-0.5,0.8-0.9,1.5-1.4,2.2v0.9c0.3,8.1,0.7,15,1.4,20.6
		c0.6,5.6,1.5,10.2,2.7,13.8c1.4,4.3,2.9,7.4,4.5,9.2c1.6,1.8,3.3,2.8,4.9,3.1c1.6,0.1,3.2-0.5,4.6-1.9c1.4-1.4,2.5-2.7,3.3-3.7
		c0.5-0.4,0.7-0.8,0.9-1.1c2.4-3.9,4.6-8.6,6.5-14.2c1-3,2-6,2.9-8.9c0.9-2.9,1.6-5.5,2.3-7.8c0.6-2.3,1.2-4.9,1.8-7.9
		c0.3-1.2,1-1.6,2-1.3c1.2,0.3,1.6,1,1.3,2c-0.6,3-1.2,5.7-1.9,8c-0.7,2.3-1.5,5-2.4,8c-0.9,3-1.9,6-2.9,9c-2.4,6.3-4.7,11.2-7,14.8
		c-0.3,0.7-0.7,1.4-1.1,2c-0.5,0.6-0.9,1.2-1.4,1.8c-1.4,1.5-2.6,2.6-3.8,3.4c-1.2,0.7-2.3,1.3-3.4,1.6c-1.2,0.5-2.3,0.7-3.2,0.7
		H507.6z"/>
	<path fill="#FC5638" d="M550.1,70c1.5-0.7,3-1.3,4.6-1.6c1.6-0.3,3.2-0.1,4.8,0.7l1.4,0.7c1.2,0.6,2.4,1.8,3.6,3.5
		c1.2,1.7,1.4,4.4,0.7,8c-0.3,2.1-0.9,4.4-1.9,7c-1,2.6-2.4,5-4.4,7.2c-0.5,0.6-1.1,1.4-2,2.3c-4.4,3.6-9.5,5.4-15.5,5.4h-1.1
		c-0.6,1.4-1.1,2.6-1.5,3.8c-0.4,1.2-0.8,2.4-1.2,3.6c-0.5,1.8-0.9,4-1.5,6.6c-0.5,2.6-0.8,5.3-0.7,7.9c0.1,2.6,0.6,5,1.5,7.1
		c0.9,2.1,2.5,3.4,4.9,4.1c2.8,0.7,5.6,0.9,8.3,0.5c3-0.8,5.7-2.2,8.1-4.4c2.4-2.2,4.1-3.9,5.2-5.3c1.2-1.5,2.4-3.2,3.7-5.1
		c1.3-1.9,2.5-3.9,3.7-6c1.6-3,3.2-5.9,4.7-8.7c1.5-2.8,2.8-5.3,4.1-7.5c1.4-2.7,2.5-5.2,3.4-7.7c0.6-1,1.4-1.3,2.3-0.9
		c0.9,0.3,1.2,1.1,0.9,2.3c-1.1,2.4-2.2,4.9-3.6,7.6c-1.2,2.3-2.6,4.8-4.1,7.8c-1.5,2.9-3.1,5.9-4.7,8.9c-1.4,2.3-2.7,4.4-4.1,6.3
		c-1.3,1.9-2.6,3.7-3.8,5.4c-0.1,0.5-0.9,1.4-2.2,2.9c-1.5,1.6-3.4,3.4-5.6,5.2c-2.3,1.8-4.9,3.1-7.9,4c-1.7,0.5-3.3,0.7-5,0.9
		c-1.7,0.1-3.5,0.1-5.6-0.2c-2-0.3-3.7-0.8-5.2-1.3c-3.7-1.5-6.3-3.9-7.6-7.3c-1.4-3.4-2.1-6.9-2.1-10.6c-0.1-3.7,0.3-7.2,1.1-10.5
		c0.8-3.3,1.5-5.7,1.9-7.2c2.1-6.6,4.8-12.9,8.1-18.9c0.6-1,1.4-2.4,2.4-3.9c1-1.6,2.1-3.2,3.3-4.7c1.2-1.6,2.5-3,4.1-4.4
		C546.9,72,548.5,70.9,550.1,70z M560.5,78.7c-0.8-2.1-2.3-2.3-4.7-0.7c-2.4,1.7-4.6,3.9-6.5,6.7c-1.1,1.2-1.7,2.2-2,2.9
		c-0.6,0.9-1.1,1.7-1.5,2.5c-0.4,0.8-0.7,1.4-1,2c-0.5,0.6-0.8,1.3-0.9,2c-0.5,0.9-0.9,1.8-1.2,2.7c-0.4,0.9-0.7,1.8-1,2.7
		c5,0,8.9-1.2,11.9-3.6c0.1-0.3,0.5-0.6,1.1-0.9c0.5-0.5,0.9-0.9,1.4-1.4c0.4-0.4,0.8-1,1.1-1.6c0.5-0.5,1-1.3,1.6-2.5l1.1-2.3
		c0.3-1,0.6-2.2,0.9-3.5c0.3-1.3,0.3-2.6,0-3.9C560.7,79.5,560.6,79.1,560.5,78.7z"/>
	<path fill="#FC5638" d="M583.9,100.1c-0.3,0.8-0.8,1.1-1.6,1.1h-0.7c-1-0.4-1.4-1.2-1.1-2.3c1.1-3,1.9-5.7,2.5-8
		c0.6-2.3,1.2-4.9,1.8-7.9c0.6-2.9,1.1-5.8,1.6-8.7c-2.1-1.2-3.7-2.6-5-4.3c-1.2-1.5-1.9-2.9-2.1-4.3c-0.2-1.4-0.3-2.5-0.1-3.6
		c0.2-2.1,0.8-3.8,1.8-5.2c1.1-1.3,2.2-2.2,3.4-2.5c1.5,0,2.6,0.4,3.4,1.1c1.2,0.9,1.9,2.1,2.3,3.7c0.3,1.6,0.5,2.5,0.5,2.8
		c0.1,1.4,0.2,2.9,0.2,4.5c0,1.7-0.2,3.5-0.5,5.6c0.3,0.3,0.7,0.5,1.1,0.6c0.5,0.1,0.8,0.2,1.1,0.3c0.7,0.3,1.5,0.5,2.3,0.5
		c0.7,0,1.6,0,2.5-0.1c0.9-0.1,1.8-0.4,2.7-1c0.6-0.3,1.3-0.9,2.2-1.8c0.6-0.5,1.5-1.1,2.6-1.9c1.1-0.8,2.3-1.2,3.5-1
		c1.6,0.3,3,1.2,3.9,2.7c1,1.5,0.9,4-0.1,7.4c-3.8,10.3-6.6,19.3-8.4,26.8c-1.9,7.5-3.1,13.7-3.8,18.7c-0.7,4.9-0.9,8.7-0.8,11.1
		c0.1,2.5,0.5,3.8,0.9,3.9c0.7-0.2,1.7-0.7,2.9-1.6c1.6-1.4,2.6-2.3,2.9-2.9c3-3.6,6-9.4,9-17.3c1-3,2-6,2.9-8.9
		c0.9-2.9,1.6-5.5,2.2-7.8c0.6-2.3,1.2-4.9,1.8-7.9c0.3-1,1-1.5,2-1.3c1,0.3,1.4,1,1.1,2c-0.6,3-1.2,5.7-1.8,8c-0.6,2.3-1.4,5-2.3,8
		c-0.9,3-1.9,6-2.9,9c-1.7,4.1-3.2,7.6-4.7,10.6c-1.5,3-3.1,5.5-4.7,7.7c-1.5,2.3-3.2,3.8-5.2,4.7c-1.4,0.9-2.6,1.4-3.7,1.6
		c-1.1,0.1-2.1,0.1-2.8,0c-0.9-0.2-1.7-0.5-2.5-1.1c-2.6-1.8-3.9-5.3-4.2-10.5c-0.2-5.2,0.2-11,1.2-17.5c1-6.5,2.5-13.1,4.3-19.8
		c1.8-6.7,3.5-12.5,5.2-17.4c-2.2,1.1-4.3,1.4-6.2,1.1c-1.9-0.3-3-0.5-3.3-0.7c-0.3-0.1-0.6-0.2-0.8-0.2c-0.2,0-0.5-0.1-0.8-0.2
		c-0.5,3.1-1.1,6.5-2,9.9c-0.9,3.9-1.8,7.2-2.6,9.9C584.3,98.5,583.9,100,583.9,100.1z M582.5,62.5c-0.3,2,0,3.6,1,5
		c1,1.3,2.1,2.5,3.5,3.4c0.1-3.1,0.1-5.9,0-8.3c0-0.6-0.1-1.3-0.3-2.2c-0.2-0.9-0.6-1.6-1-2c-0.2,0-0.3,0-0.3-0.1
		c-0.1-0.1-0.2-0.1-0.3-0.1h-0.2c-0.3,0.2-0.7,0.6-1.2,1.2C583,60,582.7,61.1,582.5,62.5z"/>
</g>
</svg>
